<?xml version="1.0" standalone="no"?>
<!DOCTYPE svg PUBLIC "-//W3C//DTD SVG 20010904//EN"
 "http://www.w3.org/TR/2001/REC-SVG-20010904/DTD/svg10.dtd">
<svg version="1.0" xmlns="http://www.w3.org/2000/svg"
 width="677.000000pt" height="677.000000pt" viewBox="0 0 677.000000 677.000000"
 preserveAspectRatio="xMidYMid meet">
<metadata>
Created by potrace 1.14, written by Peter Selinger 2001-2017
</metadata>
<g transform="translate(0.000000,677.000000) scale(0.100000,-0.100000)"
fill="#000000" stroke="none">
<path d="M2644 5835 c-7 -30 2 -99 18 -128 8 -17 12 -18 19 -6 14 26 20 118 9
139 -15 28 -38 25 -46 -5z"/>
<path d="M2742 5851 c-19 -11 -22 -68 -7 -111 l12 -35 15 30 c41 82 30 148
-20 116z"/>
<path d="M2545 5840 c-9 -14 11 -46 44 -69 39 -28 42 -27 29 12 -18 55 -56 84
-73 57z"/>
<path d="M2845 5817 c-21 -33 -54 -124 -48 -131 11 -10 58 26 81 61 26 39 26
86 0 91 -9 2 -24 -8 -33 -21z"/>
<path d="M2948 5808 c-18 -15 -73 -108 -63 -108 13 0 71 33 93 53 26 24 29 52
6 61 -20 8 -18 8 -36 -6z"/>
<path d="M2497 5783 c-16 -16 -5 -53 21 -71 31 -23 122 -55 130 -47 8 8 -113
125 -130 125 -8 0 -18 -3 -21 -7z"/>
<path d="M3409 5737 c-11 -25 3 -77 20 -77 6 0 8 7 5 15 -3 8 -3 19 1 25 9 14
45 -42 45 -69 0 -37 22 -77 57 -103 40 -31 73 -36 73 -13 0 19 29 65 40 65 5
0 -3 -21 -16 -46 -28 -52 -27 -84 0 -41 28 42 40 32 15 -13 -23 -40 -23 -42
-5 -74 26 -49 64 -67 137 -65 59 2 64 0 91 -30 16 -18 33 -31 39 -29 17 6 -59
144 -100 181 -26 24 -34 35 -23 35 9 0 24 1 32 3 13 4 16 -1 19 -35 2 -22 30
-46 54 -46 l21 0 -21 15 c-17 12 -21 22 -17 44 6 31 -19 81 -41 81 -6 0 -26 7
-44 16 -39 19 -74 12 -107 -21 -28 -28 -28 -28 -8 20 11 26 19 35 30 31 9 -3
35 0 58 8 22 8 54 12 69 9 23 -4 27 -2 27 16 0 27 -29 40 -44 19 -7 -9 -27
-18 -46 -20 -34 -3 -35 -2 -32 32 l3 35 -20 -25 c-18 -22 -22 -24 -42 -12 -21
13 -22 13 -16 -17 7 -33 -3 -40 -23 -16 -7 8 -19 15 -26 15 -7 0 -21 11 -30
25 -9 14 -25 25 -35 25 -11 0 -36 10 -57 23 -60 37 -71 39 -83 14z"/>
<path d="M1591 5703 c-33 -40 -46 -117 -29 -163 16 -44 92 -110 126 -110 20 0
-1 95 -31 135 -27 37 -29 45 -24 103 5 70 -7 81 -42 35z"/>
<path d="M2990 5705 c-25 -7 -58 -18 -75 -25 l-30 -13 30 -9 c81 -24 145 -11
145 31 0 26 -18 30 -70 16z"/>
<path d="M2449 5693 c-18 -21 4 -33 61 -33 39 0 43 2 29 15 -25 26 -76 36 -90
18z"/>
<path d="M2735 5652 c-52 -11 -66 -64 -21 -78 53 -17 106 1 106 36 0 32 -41
52 -85 42z"/>
<path d="M2514 5626 c-38 -17 -48 -40 -27 -61 25 -26 88 -9 126 33 12 13 14
22 8 26 -22 14 -77 14 -107 2z"/>
<path d="M5508 5635 c-2 -2 -23 -5 -47 -9 -24 -3 -50 -11 -57 -17 -8 -6 -14
-9 -14 -5 0 6 -59 -16 -150 -57 -30 -13 -59 -25 -64 -25 -5 0 -12 -4 -15 -9
-3 -5 -17 -14 -31 -21 -38 -19 -66 -36 -82 -50 -8 -6 -17 -10 -20 -7 -3 3 -17
-6 -31 -19 -15 -14 -27 -23 -27 -21 0 6 -42 -29 -89 -72 -19 -18 -38 -33 -42
-33 -4 0 -11 -9 -14 -20 -4 -11 -10 -18 -15 -15 -5 3 -12 -5 -16 -17 -4 -13
-12 -26 -17 -30 -6 -4 -11 -25 -11 -47 0 -30 8 -51 32 -80 18 -22 32 -43 32
-47 0 -4 10 -15 22 -25 11 -11 18 -19 15 -19 -4 0 1 -8 11 -18 25 -28 52 -62
52 -67 0 -5 25 -37 48 -61 7 -8 11 -14 7 -14 -3 0 -1 -6 5 -12 46 -56 60 -75
60 -85 0 -7 5 -13 11 -13 5 0 7 -4 4 -10 -3 -5 -2 -10 3 -10 7 0 42 -62 42
-75 0 -2 -32 -36 -70 -75 -39 -39 -68 -76 -64 -81 3 -5 1 -9 -4 -9 -16 0 -30
-52 -26 -95 2 -21 13 -48 25 -61 20 -21 77 -54 107 -61 6 -2 20 -5 30 -7 9 -3
20 -5 23 -5 14 -2 48 -39 41 -45 -4 -4 -7 -11 -7 -14 -1 -4 -5 -25 -10 -47 -4
-22 -9 -49 -11 -60 -2 -11 -5 -35 -8 -52 -3 -18 -9 -48 -12 -65 -3 -18 -7 -55
-8 -83 -2 -27 -7 -93 -11 -145 -4 -52 -8 -223 -10 -380 -2 -157 -6 -312 -9
-345 -3 -33 -5 -71 -5 -85 1 -39 1 -44 -4 -65 -9 -42 -30 -165 -30 -182 0 -7
-4 -13 -8 -13 -5 0 -6 -6 -3 -13 2 -7 -10 -60 -27 -117 -17 -58 -32 -111 -32
-117 0 -7 -5 -13 -10 -13 -6 0 -8 -3 -4 -6 3 -3 -6 -29 -20 -57 -15 -28 -26
-57 -26 -64 0 -7 -3 -13 -7 -13 -4 0 -15 -19 -26 -42 -10 -24 -21 -45 -24 -48
-3 -3 -19 -25 -35 -50 -52 -78 -183 -199 -199 -183 -3 3 -6 1 -6 -5 0 -7 -7
-12 -16 -12 -26 0 -6 43 44 95 6 8 12 16 12 19 0 3 20 39 45 81 24 41 41 75
37 75 -4 0 -2 4 4 8 13 9 55 107 57 133 1 10 4 19 7 19 6 0 42 127 45 160 1 8
5 31 8 50 10 54 19 111 23 150 5 50 5 367 0 415 -14 127 -17 153 -22 180 -6
40 -34 156 -41 175 -3 8 -8 24 -10 35 -2 11 -6 27 -10 35 -3 8 -7 17 -8 20
-13 50 -33 103 -72 190 -17 36 -33 75 -37 88 -4 12 -12 22 -18 22 -6 0 -9 3
-5 6 3 3 -5 24 -19 46 -14 21 -29 50 -34 63 -5 14 -14 25 -20 25 -6 0 -8 5 -5
10 3 6 1 10 -4 10 -6 0 -11 4 -11 9 0 16 -60 101 -71 101 -6 0 -8 4 -4 10 3 5
-2 18 -12 28 -10 10 -31 36 -48 56 -16 21 -39 48 -50 60 -11 12 -30 33 -42 47
l-23 25 23 1 c26 2 57 37 57 65 0 26 -44 68 -72 68 -31 0 -66 -25 -70 -51 l-3
-20 -22 20 c-12 12 -27 21 -32 21 -31 0 -26 152 7 219 40 82 20 99 -28 24 -34
-53 -50 -102 -50 -151 l0 -32 -27 17 c-16 10 -31 21 -34 26 -3 5 -10 9 -15 9
-5 1 -25 11 -44 23 -19 12 -55 33 -80 46 -25 13 -47 27 -48 32 -2 4 -8 4 -14
1 -6 -4 -13 -2 -17 3 -5 9 -175 81 -205 88 -6 1 -22 7 -36 12 -14 6 -33 9 -42
8 -35 -7 -28 29 23 109 89 142 117 166 202 175 58 6 65 5 81 -16 21 -28 66
-30 89 -5 19 21 22 63 6 79 -9 9 -7 11 7 9 11 -2 30 1 43 6 30 11 79 -4 117
-37 35 -30 51 -22 28 13 -24 37 -41 49 -94 67 l-45 15 49 -4 48 -4 -20 20
c-22 22 -73 26 -128 9 -26 -7 -69 -7 -133 1 -51 6 -148 -80 -205 -182 l-36
-65 -1 60 c-1 80 -5 98 -35 166 -26 58 -54 91 -86 102 -22 8 -23 -6 -2 -24 23
-19 66 -107 79 -164 22 -93 2 -230 -37 -262 -11 -9 -13 6 -12 80 2 112 -15
174 -61 223 l-34 36 -80 -7 -80 -7 15 31 c16 33 14 83 -5 118 -18 34 -14 42
34 65 52 25 56 35 18 45 -67 17 -99 9 -142 -34 -23 -22 -41 -45 -41 -49 0 -5
-16 -24 -35 -43 -40 -39 -50 -66 -41 -116 8 -43 18 -49 53 -32 33 16 102 21
121 9 10 -7 10 -14 -2 -36 -7 -15 -15 -23 -17 -17 -5 14 -88 -5 -110 -25 -9
-8 -31 -47 -49 -87 -37 -80 -67 -127 -81 -127 -5 0 2 19 17 41 56 89 67 164
35 235 -17 38 -62 84 -82 84 -5 0 -16 -14 -25 -31 -20 -41 -13 -83 27 -143 26
-39 30 -52 24 -84 -8 -43 -39 -98 -60 -106 -12 -4 -14 0 -9 20 16 62 9 150
-15 202 -30 64 -51 76 -45 24 9 -70 7 -127 -6 -181 l-13 -54 -46 50 c-123 134
-257 115 -275 -38 -6 -51 3 -64 28 -41 40 37 146 48 203 21 21 -9 31 -18 23
-20 -19 -3 -26 -4 -80 -13 -81 -14 -290 -65 -311 -77 -11 -6 -23 -9 -25 -6 -8
8 72 102 100 116 31 17 29 36 -5 37 -44 1 -104 -26 -149 -67 -44 -39 -165
-116 -247 -158 -50 -25 -123 -27 -200 -7 -50 13 -75 26 -178 90 -52 32 -69 29
-34 -6 76 -77 156 -114 284 -132 17 -2 42 -9 57 -16 23 -11 25 -15 13 -26 -7
-8 -16 -14 -20 -14 -8 0 -68 -43 -77 -55 -4 -5 -8 -6 -8 -2 0 4 -11 -3 -24
-17 -13 -15 -26 -26 -30 -26 -4 0 -14 -7 -23 -15 -8 -9 -20 -14 -27 -12 -17 5
-144 175 -172 229 -32 64 -34 82 -12 151 15 50 17 104 3 126 -2 4 -6 26 -10
49 -3 24 -15 59 -26 78 -23 41 -24 64 -4 90 20 26 19 33 -6 27 -31 -8 -49 -44
-56 -109 -3 -38 -17 -79 -39 -121 -19 -36 -31 -71 -28 -81 22 -67 101 -205
144 -250 28 -29 50 -54 50 -57 0 -2 -25 8 -56 22 -86 39 -148 52 -240 49 -64
-2 -89 -7 -104 -21 -30 -27 -24 -33 23 -24 65 12 156 10 215 -5 92 -25 197
-83 242 -133 22 -25 39 -48 36 -50 -2 -2 -39 14 -82 36 -89 44 -135 58 -213
65 -93 8 -146 -25 -156 -96 -2 -18 -9 -48 -14 -66 -9 -30 -7 -37 23 -70 18
-20 38 -53 45 -73 12 -37 39 -68 79 -88 25 -13 30 0 8 19 -21 16 -39 77 -32
103 3 12 24 33 46 46 49 31 53 42 33 92 -22 56 -10 65 61 51 31 -6 81 -23 111
-37 l56 -25 -73 -73 c-40 -39 -87 -90 -103 -112 -16 -22 -38 -47 -47 -56 -10
-9 -18 -21 -18 -28 0 -6 -5 -11 -12 -11 -6 0 -9 -3 -5 -6 3 -3 -3 -15 -14 -27
-10 -11 -19 -27 -19 -34 0 -8 -4 -12 -8 -9 -7 4 -34 -45 -33 -59 1 -3 -7 -13
-16 -23 -17 -16 -19 -16 -34 18 -9 19 -23 41 -32 48 -25 21 -79 25 -102 9 -24
-18 -15 -30 24 -33 64 -4 75 -14 91 -80 10 -42 -1 -60 -28 -45 -15 8 -29 8
-49 0 -34 -12 -133 -79 -133 -90 0 -4 13 -21 29 -38 30 -32 30 -32 67 -16 21
8 44 21 52 28 10 7 7 -3 -7 -31 -12 -23 -18 -42 -14 -43 18 -1 -41 -19 -85
-25 -139 -20 -226 -6 -323 49 -79 46 -85 50 -134 112 -56 70 -117 135 -126
135 -19 0 59 -139 83 -148 13 -6 9 -22 -5 -22 -15 0 -53 -37 -46 -44 13 -12
50 -9 67 7 19 18 21 17 53 -11 37 -32 133 -95 161 -105 10 -3 18 -10 18 -15 0
-4 -25 -32 -55 -61 -31 -30 -58 -65 -61 -78 -5 -18 -11 -22 -23 -17 -9 3 -36
9 -61 11 -35 4 -51 1 -70 -15 l-24 -19 25 -13 c31 -17 113 -17 134 0 13 11 15
9 15 -15 0 -16 11 -43 26 -62 19 -26 32 -33 58 -33 l33 0 -4 48 c-3 28 4 78
15 122 11 41 19 85 17 97 -3 28 6 30 115 32 46 1 100 6 120 11 53 15 65 13 50
-5 -7 -9 -10 -18 -7 -22 4 -3 -2 -18 -13 -33 -11 -16 -31 -52 -44 -80 -13 -29
-37 -66 -53 -82 l-28 -30 41 4 c25 2 40 -1 38 -7 -1 -5 -5 -28 -8 -50 -5 -41
-14 -92 -22 -133 l-4 -22 -50 25 -50 25 0 -47 c0 -57 31 -125 71 -154 16 -11
29 -24 29 -28 0 -3 -39 -6 -86 -5 -111 2 -214 -23 -214 -52 0 -19 10 -18 135
13 11 2 55 7 97 10 72 4 76 3 72 -14 -3 -11 -19 -27 -35 -37 -16 -10 -37 -29
-46 -43 -18 -27 -19 -81 -3 -97 6 -6 10 -18 10 -27 0 -10 4 -21 10 -24 13 -8
58 25 66 48 8 25 16 15 20 -25 2 -18 8 -46 13 -63 5 -16 11 -40 14 -53 l5 -23
-33 21 c-40 25 -75 25 -123 2 -20 -10 -45 -17 -54 -14 -17 3 -17 5 -2 20 26
25 -1 27 -40 3 -19 -12 -37 -28 -40 -37 -5 -13 -1 -14 23 -9 16 3 32 2 35 -4
3 -5 -12 -12 -33 -16 -22 -3 -47 -12 -57 -19 -16 -12 -16 -14 9 -31 31 -20 91
-23 112 -5 12 10 16 7 25 -15 5 -14 10 -28 10 -30 0 -4 -19 -1 -72 11 -22 4
-27 2 -22 -10 6 -16 55 -36 90 -36 13 0 27 -6 31 -13 25 -41 100 -60 143 -37
18 10 18 13 4 53 -17 47 -21 118 -8 138 7 12 31 -52 37 -101 1 -8 4 -17 7 -20
8 -8 40 -80 40 -89 0 -4 -17 -13 -39 -19 -48 -15 -87 -45 -106 -82 -14 -27
-14 -30 13 -47 49 -33 109 -24 165 25 16 14 19 14 35 -4 10 -10 21 -27 24 -36
5 -13 2 -16 -15 -12 -25 4 -147 -49 -147 -65 0 -5 38 -9 88 -8 70 1 97 -3 136
-21 l49 -22 -49 -48 c-96 -91 -124 -205 -66 -268 29 -33 72 -54 112 -56 49 -2
52 1 30 30 -24 32 -44 142 -35 191 3 18 13 48 22 67 l16 33 26 -19 c14 -10 35
-27 46 -37 34 -30 112 -83 124 -83 6 0 11 -4 11 -8 0 -9 111 -68 123 -64 4 1
7 -3 7 -10 0 -6 3 -8 6 -5 4 3 16 1 28 -5 11 -7 23 -13 26 -13 32 -8 68 -18
80 -22 27 -10 45 -14 63 -14 9 0 17 -3 17 -7 0 -4 10 -7 23 -8 66 -3 107 -9
107 -15 0 -4 13 -4 29 1 16 4 32 6 35 3 7 -8 79 -11 91 -4 5 3 28 6 50 7 44 3
64 6 140 24 28 7 57 13 65 15 8 2 16 4 18 5 1 2 5 3 10 4 4 1 32 13 64 28 31
14 67 29 80 33 12 4 25 11 28 14 3 4 35 22 73 41 37 18 67 37 67 42 0 4 7 8
15 8 8 0 15 5 15 11 0 5 4 8 9 4 6 -3 15 4 21 16 7 11 14 18 17 15 4 -3 12 3
20 14 8 11 19 20 25 20 13 0 16 2 127 109 47 45 81 81 76 81 -4 0 2 8 13 19
12 10 19 21 15 25 -3 3 -2 6 4 6 6 0 26 24 44 53 18 28 38 55 44 59 5 4 6 8 1
8 -5 0 -1 9 9 20 10 11 14 20 9 20 -5 0 -1 5 9 11 9 5 17 18 17 27 0 10 10 35
21 57 12 22 21 41 20 43 -1 1 7 32 19 68 11 37 23 81 26 98 8 44 12 61 14 61
4 0 12 114 12 175 0 86 -9 196 -16 208 -3 6 -8 27 -11 48 -5 42 -35 146 -44
154 -3 3 -8 14 -9 25 -5 26 -66 138 -95 172 -53 64 -126 132 -177 165 -56 36
-101 62 -110 63 -3 0 -16 7 -30 15 -14 7 -27 13 -30 13 -7 -1 -20 3 -60 15
-88 28 -241 34 -350 14 -89 -16 -90 -16 -150 -40 -8 -3 -19 -7 -25 -8 -26 -4
-75 -27 -75 -35 0 -5 -5 -9 -10 -9 -6 0 -29 -12 -52 -27 -22 -16 -48 -32 -57
-38 -8 -5 -23 -19 -33 -30 -9 -11 -17 -17 -18 -12 0 8 -80 -70 -80 -79 0 -3
-7 -12 -15 -21 -28 -28 -95 -132 -116 -180 -53 -122 -62 -168 -62 -319 0 -91
4 -130 16 -156 9 -18 20 -44 26 -58 24 -55 100 -140 126 -140 8 0 15 -4 15
-10 0 -29 172 -37 206 -9 8 6 14 8 14 5 0 -10 89 54 118 84 38 40 64 105 66
168 2 54 -20 153 -36 160 -5 2 -8 12 -8 23 0 10 -5 19 -12 19 -6 0 -9 3 -5 6
3 3 -5 24 -19 45 -29 46 -30 59 -6 59 15 0 121 -90 114 -97 -3 -5 33 -78 41
-84 5 -3 8 -9 8 -13 -1 -3 -1 -7 0 -8 5 -15 10 -66 12 -123 3 -69 -13 -137
-46 -201 -26 -50 -109 -125 -166 -151 -64 -28 -172 -47 -196 -34 -5 3 -22 6
-36 7 -15 1 -35 5 -45 9 -11 5 -21 9 -24 10 -51 17 -89 45 -152 110 -26 28
-103 165 -92 165 2 0 0 8 -5 18 -23 43 -38 273 -22 330 7 22 6 32 -1 32 -7 0
-7 4 0 13 6 6 14 30 18 52 10 49 9 47 18 67 4 9 9 22 11 30 8 34 18 58 24 58
4 0 7 9 8 20 1 11 11 29 22 41 11 12 18 25 16 30 -3 4 2 14 10 23 9 8 15 18
15 21 -1 7 31 51 68 94 41 47 102 110 102 105 0 -2 21 16 47 41 26 25 53 45
60 45 7 0 17 8 22 18 6 9 11 13 11 9 0 -5 15 2 33 15 17 13 33 22 34 21 7 -4
43 11 43 18 0 5 3 8 8 7 4 -1 45 11 92 26 47 16 92 29 100 31 8 1 29 5 45 8
17 4 41 10 55 13 44 9 283 12 330 4 99 -18 116 -23 170 -43 30 -12 57 -22 60
-22 39 -8 204 -115 241 -157 9 -10 20 -18 23 -18 4 0 24 -19 44 -42 20 -23 47
-52 58 -64 12 -13 19 -25 16 -28 -3 -3 0 -6 6 -6 7 0 12 -6 12 -14 0 -8 3 -16
8 -18 27 -12 124 -208 147 -298 1 -3 4 -12 8 -20 3 -8 8 -28 10 -45 3 -16 8
-41 11 -55 21 -84 29 -321 14 -425 -7 -50 -19 -121 -22 -140 -7 -36 -40 -132
-48 -142 -5 -7 -7 -17 -3 -23 3 -5 1 -10 -4 -10 -6 0 -11 -5 -11 -10 0 -6 -9
-30 -20 -52 -11 -23 -18 -43 -15 -46 2 -2 -3 -11 -11 -19 -8 -8 -12 -19 -9
-24 4 -5 2 -9 -3 -9 -6 0 -25 -26 -44 -57 -18 -31 -40 -69 -48 -83 -59 -98
-265 -321 -311 -335 -10 -4 -17 -11 -14 -16 4 -5 -1 -9 -10 -9 -8 0 -18 -7
-21 -15 -4 -8 -12 -15 -20 -15 -8 0 -14 -4 -14 -10 0 -5 -7 -10 -15 -10 -8 0
-15 -4 -15 -10 0 -5 -7 -10 -15 -10 -8 0 -24 -9 -35 -20 -11 -11 -20 -18 -20
-15 0 3 -12 -2 -27 -12 -14 -9 -32 -18 -39 -19 -7 -1 -26 -11 -42 -23 -16 -11
-32 -18 -35 -14 -4 3 -12 1 -19 -4 -7 -6 -38 -18 -68 -27 -30 -10 -62 -20 -70
-23 -8 -3 -24 -8 -35 -10 -38 -8 -50 -11 -50 -13 0 -1 -7 -3 -15 -5 -8 -1 -40
-8 -70 -14 -30 -6 -73 -13 -95 -16 -22 -3 -56 -8 -75 -12 -19 -3 -55 -7 -80
-9 -25 -2 -63 -6 -85 -9 -22 -3 -76 -7 -120 -10 -98 -7 -150 -13 -150 -15 0
-2 -13 -4 -30 -5 -88 -8 -222 -33 -275 -53 -8 -3 -19 -6 -25 -7 -5 -2 -27 -10
-48 -18 -20 -9 -38 -16 -40 -15 -6 4 -95 -58 -116 -81 -33 -37 -83 -111 -75
-111 3 0 2 -6 -3 -12 -14 -19 -16 -85 -4 -93 6 -3 42 -8 79 -11 37 -2 105 -6
152 -9 47 -3 110 -7 141 -10 30 -2 96 -7 145 -9 49 -3 123 -8 164 -11 41 -2
103 -7 138 -9 35 -2 66 -6 68 -9 3 -3 19 -1 35 3 16 5 29 6 29 2 0 -8 -2 -7
206 -14 78 -3 146 -8 153 -12 6 -4 11 -1 11 6 0 8 3 9 8 3 4 -5 34 -11 67 -12
33 -1 132 -4 220 -7 190 -8 170 -7 225 -3 25 2 50 -1 57 -5 6 -5 14 -5 18 2 4
7 12 7 25 0 13 -7 21 -7 25 0 4 6 11 7 17 3 14 -8 76 -9 84 0 3 3 17 2 30 -3
16 -6 24 -6 24 1 0 6 5 7 11 3 14 -8 92 -9 106 -1 5 3 15 2 22 -3 8 -4 26 -4
41 0 15 4 34 4 43 -1 8 -5 18 -6 21 -1 3 5 20 7 38 5 47 -5 44 -5 138 1 47 3
130 9 185 12 55 3 118 7 140 9 22 1 76 6 120 9 44 4 91 8 105 10 23 4 117 16
165 22 31 3 98 13 120 18 11 2 42 7 69 10 27 4 52 9 55 11 3 1 24 6 46 9 55 9
167 35 248 58 38 11 77 20 88 21 10 1 19 6 19 11 0 5 3 7 6 3 5 -5 36 5 134
41 8 3 18 6 22 6 3 1 10 4 14 8 4 5 15 8 25 8 10 0 25 7 33 16 9 8 16 12 16 8
0 -3 6 -1 13 5 8 6 17 8 20 4 4 -3 7 -1 7 5 0 7 11 12 25 12 14 0 25 5 25 10
0 6 7 10 16 10 8 0 30 11 48 25 18 14 36 25 40 25 6 0 64 38 76 50 3 3 23 18
45 35 54 40 183 173 190 196 4 11 11 19 16 19 5 0 9 6 9 14 0 7 7 19 15 26 8
6 14 15 13 18 -1 4 6 21 15 39 9 18 17 39 17 48 0 8 4 15 8 15 5 0 13 19 19
43 6 23 23 87 38 142 14 55 28 111 30 125 2 14 6 36 9 50 3 13 8 42 12 64 3
22 7 43 9 46 3 4 9 56 20 155 2 17 7 55 10 85 7 59 11 124 19 291 3 58 6 110
7 115 1 5 1 11 -1 14 -1 3 -3 28 -5 55 -5 81 -14 146 -21 157 -4 7 -2 8 4 4 9
-5 9 0 1 21 -9 25 -20 103 -14 103 2 0 24 -20 50 -45 58 -54 124 -88 157 -80
41 10 54 49 52 160 -2 191 -18 225 -108 233 -41 3 -56 1 -56 -8 0 -8 -3 -11
-6 -8 -3 4 -27 -15 -53 -40 -45 -45 -49 -47 -103 -47 -40 0 -63 5 -78 18 -11
9 -23 17 -26 17 -2 0 -15 9 -27 20 -12 12 -46 33 -77 47 -30 15 -58 32 -62 38
-11 15 20 34 45 29 30 -7 236 -6 267 1 14 3 41 8 60 11 49 8 136 42 192 75 74
44 179 162 170 192 -1 4 2 7 7 7 5 0 12 15 16 33 8 34 11 44 15 52 7 15 4 85
-4 85 -5 0 -4 6 3 13 6 8 7 18 3 23 -5 5 -15 28 -22 52 -7 23 -18 42 -23 42
-6 0 -8 3 -4 6 13 13 -74 112 -163 185 -23 19 -50 41 -60 50 -10 8 -31 24 -46
35 -56 39 -102 91 -111 125 -11 41 -11 159 0 177 5 6 6 12 3 12 -6 0 23 99 37
125 6 11 11 23 12 26 0 4 14 24 31 46 30 37 67 60 166 101 25 11 51 28 56 39
15 28 6 68 -22 98 -21 23 -37 29 -76 31 -44 3 -53 0 -85 -30 -19 -18 -35 -36
-35 -40 0 -4 -20 -27 -45 -52 -25 -24 -42 -44 -38 -44 12 0 -72 -59 -84 -60
-7 0 -17 8 -22 18 -6 9 -11 13 -11 9 0 -5 -6 -2 -14 5 -8 9 -33 14 -64 13 -61
-1 -82 20 -54 54 9 12 26 33 37 47 11 14 30 37 43 49 12 13 22 26 22 29 0 3
15 21 34 40 112 116 144 234 74 280 -42 27 -87 29 -124 4 -36 -25 -45 -52 -49
-151 l-3 -59 -77 -74 c-43 -41 -91 -82 -106 -91 -16 -10 -29 -21 -29 -25 0 -4
-9 -12 -19 -17 -17 -9 -23 -3 -50 54 -17 35 -31 69 -31 75 0 5 -4 18 -10 28
-8 14 -51 124 -55 142 -8 33 -19 67 -24 75 -3 6 -6 15 -7 20 -4 23 -24 64 -34
70 -5 3 -8 10 -5 15 6 10 -77 34 -87 25z m-2228 -600 c48 -30 85 -32 102 -5
17 26 44 25 59 -1 14 -26 24 -149 15 -184 -5 -20 -11 -25 -25 -20 -11 3 -33 8
-50 10 -17 3 -45 7 -62 10 -17 2 -39 7 -48 10 -16 5 -131 15 -193 18 -33 1
-34 6 -8 40 12 14 30 48 42 74 l22 48 6 -30 6 -30 13 23 c10 18 65 62 79 62 1
0 20 -11 42 -25z"/>
<path d="M1729 5587 c-18 -51 -11 -106 20 -148 12 -16 21 -37 20 -47 -4 -42 3
-62 23 -73 56 -30 99 -15 196 68 35 29 76 60 91 68 26 13 40 32 47 62 1 6 -7
21 -17 32 -29 30 -77 27 -175 -14 -46 -19 -91 -35 -100 -35 -27 0 -74 56 -74
89 0 45 -14 45 -31 -2z"/>
<path d="M2917 5624 c-9 -9 81 -64 104 -64 9 0 22 6 28 14 17 20 -12 46 -52
46 -18 0 -41 3 -52 6 -11 3 -24 2 -28 -2z"/>
<path d="M3370 5610 c-8 -5 -32 -10 -53 -10 -31 0 -40 -5 -57 -32 -22 -37 -27
-63 -6 -35 18 23 22 22 65 -12 46 -37 51 -37 138 -22 l73 13 -38 45 c-47 58
-88 75 -122 53z"/>
<path d="M2889 5561 c29 -40 66 -65 87 -57 38 15 -12 70 -75 83 l-35 6 23 -32z"/>
<path d="M2613 5540 c-30 -14 -43 -25 -43 -40 0 -25 31 -27 52 -2 15 16 42 63
36 61 -2 0 -22 -9 -45 -19z"/>
<path d="M2830 5549 c0 -18 33 -68 48 -74 30 -11 46 31 19 53 -23 19 -67 33
-67 21z"/>
<path d="M2771 5521 c-13 -18 -20 -38 -17 -46 7 -18 46 -20 47 -2 0 6 2 21 4
31 2 11 0 26 -4 34 -6 11 -13 7 -30 -17z"/>
<path d="M2710 5532 c-26 -8 -49 -33 -43 -48 8 -22 31 -17 49 11 18 28 16 44
-6 37z"/>
<path d="M4290 5515 c0 -14 -20 -62 -44 -108 -69 -128 -76 -221 -27 -322 17
-35 38 -65 45 -68 8 -3 30 7 48 24 18 16 47 34 65 41 34 12 47 35 60 103 17
97 -2 183 -58 250 -22 26 -47 61 -56 76 -21 36 -33 37 -33 4z"/>
<path d="M2160 5520 c0 -6 12 -15 26 -20 50 -19 81 -50 108 -103 14 -30 26
-57 26 -60 0 -3 -16 -3 -35 0 -69 11 -54 -52 15 -66 24 -5 34 -13 36 -29 3
-19 -1 -22 -34 -22 -20 0 -44 -5 -52 -10 -11 -7 -16 -4 -20 11 -7 30 -22 28
-31 -3 -4 -15 -17 -41 -29 -58 -12 -17 -28 -53 -35 -80 -7 -28 -31 -78 -53
-113 -57 -90 -76 -172 -52 -218 10 -19 12 -18 58 5 59 30 78 51 86 98 4 21 18
61 31 91 28 59 29 75 19 161 l-7 58 32 -7 c20 -4 41 -1 61 8 39 20 43 -3 4
-23 -38 -21 -51 -50 -29 -66 9 -7 23 -10 31 -7 17 6 2 -33 -58 -151 -42 -83
-44 -104 -6 -63 65 70 130 263 122 361 -4 50 -3 55 13 49 16 -5 15 -3 -3 18
-12 13 -24 34 -27 46 -5 21 -4 21 17 8 13 -9 25 -12 29 -9 8 8 -41 86 -62 98
-8 5 -27 21 -41 35 -57 57 -140 93 -140 61z"/>
<path d="M2476 5512 c-15 -3 -17 -11 -13 -43 3 -22 13 -52 23 -67 l18 -27 7
25 c12 41 10 97 -3 107 -7 5 -21 8 -32 5z"/>
<path d="M1517 5482 c-30 -33 -33 -93 -7 -141 32 -56 46 -58 60 -6 10 37 10
46 -6 70 -9 15 -20 43 -23 62 -6 35 -6 35 -24 15z"/>
<path d="M2377 5494 c-18 -18 -5 -54 31 -85 35 -31 37 -32 40 -12 7 47 -47
120 -71 97z"/>
<path d="M3397 5442 c-75 -46 -117 -90 -117 -121 0 -10 7 -8 24 8 21 20 28 21
61 12 22 -6 45 -7 54 -2 9 5 28 7 43 4 39 -7 94 14 123 48 33 40 32 51 -7 72
-68 35 -96 32 -181 -21z"/>
<path d="M2566 5434 c-9 -8 -18 -25 -21 -37 -11 -49 -13 -77 -7 -77 13 0 62
62 68 86 10 41 -12 57 -40 28z"/>
<path d="M2658 5428 c-7 -20 52 -186 69 -192 17 -7 12 24 -19 119 -21 66 -42
97 -50 73z"/>
<path d="M2796 5422 c-4 -10 0 -36 7 -57 l14 -39 11 32 c7 22 8 41 2 57 -11
29 -26 32 -34 7z"/>
<path d="M2860 5410 c-6 -12 -10 -35 -8 -53 l3 -32 17 25 c26 39 34 80 14 80
-8 0 -20 -9 -26 -20z"/>
<path d="M2730 5396 c0 -16 22 -41 51 -56 18 -10 18 -9 7 17 -7 15 -16 34 -21
41 -13 16 -37 15 -37 -2z"/>
<path d="M3610 5399 c0 -9 -13 -28 -30 -42 -16 -15 -30 -32 -30 -38 0 -32 35
-110 56 -124 13 -8 24 -22 24 -31 0 -8 5 -12 11 -8 6 3 9 19 5 34 -3 18 0 33
9 40 8 7 15 21 15 31 0 10 5 21 10 24 22 13 9 52 -30 90 -26 25 -40 34 -40 24z"/>
<path d="M2907 5372 c-31 -32 -34 -42 -11 -42 8 0 13 -4 10 -9 -7 -11 42 -19
73 -11 14 3 26 11 29 18 6 18 -27 27 -60 14 l-28 -10 20 25 c18 24 19 43 1 43
-4 0 -19 -13 -34 -28z"/>
<path d="M1605 5377 c-19 -14 -13 -37 9 -37 7 0 23 11 36 25 l23 25 -24 0
c-14 0 -33 -6 -44 -13z"/>
<path d="M2468 5349 c-28 -16 -21 -53 14 -88 28 -28 33 -29 39 -14 18 51 -19
122 -53 102z"/>
<path d="M1659 5334 c-10 -13 -10 -17 1 -24 14 -9 70 17 70 32 0 15 -57 8 -71
-8z"/>
<path d="M3810 5321 c0 -14 69 -65 77 -57 11 11 -32 61 -56 64 -11 2 -21 -1
-21 -7z"/>
<path d="M2807 5297 c-9 -7 -18 -25 -20 -42 -3 -16 -10 -50 -17 -75 -7 -25
-12 -67 -11 -95 2 -57 -11 -53 -31 10 -10 32 -18 41 -40 43 -18 2 -30 -3 -37
-17 -15 -28 -4 -49 38 -71 20 -10 52 -34 70 -54 32 -32 60 -49 47 -27 -3 5 -9
45 -12 89 -7 93 4 138 42 167 44 33 48 52 15 69 -22 12 -32 13 -44 3z"/>
<path d="M1569 5284 c-10 -13 -10 -17 1 -24 15 -9 47 7 54 27 8 19 -39 16 -55
-3z"/>
<path d="M2928 5292 c-10 -2 -18 -7 -18 -12 0 -11 52 -28 68 -23 13 5 17 32 5
34 -5 0 -15 2 -23 3 -8 1 -23 1 -32 -2z"/>
<path d="M4718 5281 c-14 -11 -54 -27 -90 -36 -36 -9 -80 -26 -98 -36 -38 -24
-67 -84 -75 -161 l-6 -56 38 4 c113 10 138 15 172 35 60 33 84 86 86 186 1 46
1 83 0 83 -1 0 -13 -9 -27 -19z"/>
<path d="M1650 5273 c-30 -12 -40 -43 -14 -43 14 0 54 35 54 47 0 5 -22 2 -40
-4z"/>
<path d="M2099 5257 c-45 -24 -114 -102 -104 -117 3 -5 21 0 40 11 26 16 45
19 78 15 43 -6 43 -6 65 39 12 25 22 52 22 60 0 23 -50 18 -101 -8z"/>
<path d="M2572 5271 c-12 -7 -29 -56 -35 -100 -4 -27 40 -31 85 -7 28 15 55
21 77 19 44 -6 32 13 -20 28 -26 8 -44 21 -52 38 -13 28 -34 36 -55 22z"/>
<path d="M1735 5254 c-44 -23 -48 -28 -47 -78 2 -98 53 -204 114 -237 15 -8
15 -4 4 44 -11 47 -12 73 -8 131 2 14 8 9 28 -20 25 -39 102 -114 117 -114 4
0 7 5 7 10 0 6 -4 10 -9 10 -19 0 -73 134 -79 194 -3 34 -10 64 -16 68 -19 13
-80 9 -111 -8z"/>
<path d="M2402 5238 c-13 -13 -17 -68 -4 -69 4 0 16 -2 27 -4 12 -3 34 6 50
20 l30 25 -24 20 c-26 22 -61 26 -79 8z"/>
<path d="M935 5164 c-18 -19 -4 -44 25 -44 23 0 34 28 19 46 -15 18 -24 18
-44 -2z"/>
<path d="M1079 5122 c-30 -13 -87 -67 -93 -89 -4 -12 -3 -38 3 -58 5 -21 6
-35 0 -35 -5 0 -9 3 -9 8 0 4 -12 15 -27 23 l-26 17 22 11 c12 7 19 17 15 22
-3 6 -6 30 -6 52 1 39 0 41 -14 22 -8 -11 -13 -28 -11 -37 5 -19 -17 -14 -45
9 -9 8 -22 12 -28 8 -8 -5 -6 -11 6 -20 27 -19 28 -53 1 -58 -21 -3 -21 -4 -2
-11 11 -4 31 -13 44 -19 l23 -11 -30 -8 c-16 -4 -35 -15 -42 -23 -7 -8 -21
-15 -30 -15 -28 0 -50 -11 -50 -24 0 -7 -22 -27 -49 -44 -56 -37 -64 -50 -46
-76 15 -20 95 -35 95 -17 0 6 -6 11 -14 11 -7 0 -19 7 -26 15 -11 13 -7 15 26
16 22 1 44 0 49 -1 6 -1 27 -7 48 -13 47 -12 111 6 144 41 l22 23 -40 40 c-21
21 -39 45 -39 52 1 6 23 -12 51 -42 57 -61 79 -62 30 -1 -22 27 -26 38 -14 33
22 -8 34 -20 57 -55 16 -24 25 -28 66 -28 72 0 110 30 133 108 l19 62 56 16
c46 14 53 18 36 24 -68 26 -245 -3 -298 -47 l-21 -18 20 24 c11 13 21 32 21
42 1 10 2 24 3 30 0 6 10 4 23 -5 30 -21 61 -20 81 2 23 25 21 35 -4 22 -17
-9 -25 -8 -40 6 -17 16 -22 16 -29 4 -8 -13 -10 -12 -10 3 0 17 -22 21 -51 9z
m-34 -168 c-8 -16 -15 -23 -15 -16 0 13 22 53 27 48 2 -2 -3 -16 -12 -32z
m-340 -164 c-3 -5 -12 -10 -18 -10 -7 0 -6 4 3 10 19 12 23 12 15 0z"/>
<path d="M4089 5042 c-28 -14 -99 -102 -99 -122 0 -3 22 -10 48 -17 28 -6 83
-34 130 -67 73 -50 84 -54 113 -46 81 23 75 96 -10 140 -22 11 -41 29 -45 42
-9 35 -30 56 -68 72 -31 13 -38 13 -69 -2z"/>
<path d="M1328 5013 c-17 -4 -34 -40 -24 -50 7 -7 96 37 96 48 0 9 -41 10 -72
2z"/>
<path d="M4363 4983 c-27 -5 -67 -53 -55 -65 5 -5 26 1 48 13 33 18 44 19 68
10 l28 -11 -26 -25 c-29 -27 -33 -60 -10 -93 31 -45 124 -11 110 41 -3 12 -6
27 -6 34 0 12 -38 29 -54 24 -5 -1 -4 4 2 12 24 29 -50 71 -105 60z"/>
<path d="M4573 4883 c-8 -3 -10 -21 -6 -57 5 -47 3 -55 -17 -69 -21 -15 -37
-15 -118 -2 -30 5 -32 3 -23 -14 29 -53 138 -115 221 -126 112 -14 125 -17
147 -31 12 -8 25 -14 28 -14 11 0 4 28 -9 39 -8 7 -19 35 -25 62 -14 65 -41
116 -83 156 -35 34 -95 63 -115 56z"/>
<path d="M1195 4831 c-59 -18 -63 -20 -48 -29 7 -4 21 -29 32 -55 13 -29 27
-48 38 -49 42 -4 50 -5 81 -12 24 -6 40 -3 57 8 13 9 37 16 52 17 28 1 28 1
-7 17 -20 9 -55 38 -79 64 -24 25 -51 48 -60 50 -9 3 -38 -2 -66 -11z"/>
<path d="M4012 4814 c-57 -40 7 -127 67 -93 35 20 39 61 10 88 -27 25 -47 26
-77 5z"/>
<path d="M1062 4800 c-65 -40 -78 -83 -54 -175 6 -22 14 -55 17 -72 7 -41 36
-90 66 -111 21 -15 22 -15 15 4 -18 44 -18 56 4 79 13 13 23 39 25 59 1 19 7
42 14 50 27 32 17 104 -21 159 -23 32 -24 32 -66 7z"/>
<path d="M948 4765 c-3 -3 -21 -7 -39 -9 -19 -2 -41 -7 -50 -10 -23 -10 -50
-61 -45 -88 2 -12 -2 -35 -10 -49 -11 -21 -10 -30 1 -53 15 -28 39 -56 50 -56
3 0 1 9 -5 21 -7 11 -10 22 -8 23 2 2 25 14 51 27 51 25 63 38 71 84 18 96 18
115 4 115 -8 0 -17 -2 -20 -5z"/>
<path d="M4296 4752 c-2 -4 4 -39 15 -77 11 -39 19 -83 18 -100 -2 -46 0 -55
11 -55 15 0 32 49 32 85 -1 33 -44 139 -61 149 -5 4 -12 3 -15 -2z"/>
<path d="M977 4508 c-36 -48 -41 -87 -17 -123 11 -16 20 -37 20 -46 0 -8 16
-30 35 -49 19 -19 35 -39 35 -45 0 -6 -11 -27 -25 -47 -14 -21 -29 -48 -35
-62 -9 -24 -8 -24 33 -22 62 5 157 44 167 69 14 39 -7 40 -92 3 -76 -33 -80
-34 -54 -11 16 14 32 25 35 25 11 0 81 69 81 80 0 21 -32 22 -58 3 l-27 -20
-1 28 c-1 16 -9 44 -17 61 -15 32 -20 53 -33 146 -4 23 -10 42 -15 42 -4 0
-19 -15 -32 -32z"/>
<path d="M632 4415 c-16 -13 -40 -40 -53 -59 -13 -20 -32 -36 -42 -36 -11 0
-24 -13 -33 -35 -20 -48 -18 -71 8 -89 l21 -15 -26 -12 c-54 -25 -62 -139 -12
-185 14 -13 32 -24 39 -24 18 0 37 48 34 86 -2 35 7 54 27 54 23 0 48 46 41
75 -4 14 -11 25 -17 25 -8 0 34 65 52 80 3 3 14 21 24 40 10 19 26 46 37 59
14 19 16 26 6 32 -15 9 -42 -13 -66 -53 -9 -16 -20 -28 -25 -28 -5 0 -4 6 2
13 11 14 25 97 17 97 -3 0 -18 -11 -34 -25z m-30 -197 c-7 -7 -12 -8 -12 -2 0
14 12 26 19 19 2 -3 -1 -11 -7 -17z m-32 -12 c0 -2 -7 -7 -16 -10 -8 -3 -12
-2 -9 4 6 10 25 14 25 6z"/>
<path d="M839 4243 c-55 -5 -92 -34 -132 -104 -34 -57 -66 -150 -74 -208 -7
-56 12 -48 22 9 10 59 46 96 113 117 38 12 66 29 87 52 16 19 50 54 73 79 24
24 42 46 39 49 -8 7 -76 11 -128 6z"/>
<path d="M441 4181 c-25 -25 -28 -71 -6 -71 21 0 52 67 38 81 -8 8 -17 5 -32
-10z"/>
<path d="M1085 4106 c-98 -24 -124 -57 -60 -75 46 -12 100 3 131 36 48 51 26
63 -71 39z"/>
<path d="M898 4070 c-39 -32 -54 -61 -49 -95 3 -25 12 -34 38 -39 26 -5 50 20
69 71 32 92 9 118 -58 63z"/>
<path d="M386 4068 c-24 -34 -21 -51 9 -46 13 3 22 1 19 -3 -3 -5 -12 -9 -19
-9 -15 0 -48 -57 -58 -100 -3 -14 -9 -53 -12 -86 -7 -64 4 -89 25 -57 11 17
11 16 5 -2 -13 -42 -17 -103 -7 -109 15 -9 48 57 57 113 4 25 16 52 27 60 30
25 40 124 22 211 -11 53 -42 66 -68 28z"/>
<path d="M742 4008 c-1 -7 -5 -58 -8 -114 l-6 -101 32 -37 c18 -20 37 -33 41
-29 16 16 18 121 2 179 -22 88 -56 143 -61 102z"/>
<path d="M970 3992 c0 -39 62 -92 109 -92 28 0 51 27 51 60 0 34 -30 47 -107
49 -45 1 -53 -2 -53 -17z"/>
<path d="M940 3923 c0 -70 55 -142 96 -126 31 12 15 61 -36 112 -28 28 -53 51
-55 51 -3 0 -5 -17 -5 -37z"/>
<path d="M895 3907 c-10 -23 -1 -110 17 -162 9 -29 19 -40 33 -40 31 0 31 46
-1 113 -15 31 -30 68 -34 82 -7 22 -8 23 -15 7z"/>
<path d="M537 3651 c-34 -52 -38 -65 -33 -103 14 -111 15 -147 6 -153 -25 -15
-4 -105 25 -105 11 0 12 6 5 25 -7 18 -5 35 7 62 9 21 18 47 20 57 2 11 8 25
13 31 16 20 40 107 40 148 0 37 -23 97 -38 97 -4 0 -24 -27 -45 -59z"/>
<path d="M711 3356 c-6 -7 -14 -34 -17 -60 -6 -38 -4 -46 9 -46 24 0 49 101
28 114 -5 3 -14 0 -20 -8z"/>
<path d="M602 3298 c-18 -18 -14 -51 11 -89 27 -40 48 -44 54 -9 3 14 6 32 7
40 4 18 -14 60 -25 60 -4 0 -13 2 -21 5 -7 3 -19 0 -26 -7z"/>
<path d="M393 3278 c-26 -29 -44 -64 -37 -71 11 -11 34 5 54 38 33 54 22 75
-17 33z"/>
<path d="M731 3255 c-17 -20 -31 -41 -32 -48 0 -7 -2 -20 -4 -29 -2 -10 1 -18
7 -18 15 0 81 41 95 60 17 21 16 57 -3 64 -26 10 -31 8 -63 -29z"/>
<path d="M244 3255 c-25 -38 4 -115 42 -115 33 0 53 89 26 112 -32 28 -51 29
-68 3z"/>
<path d="M132 3261 c-10 -6 -5 -17 21 -45 35 -37 57 -46 57 -23 0 22 -64 77
-78 68z"/>
<path d="M491 3250 c-9 -5 1 -17 30 -39 43 -31 84 -41 77 -19 -7 19 -94 67
-107 58z"/>
<path d="M440 3215 c0 -6 -10 -11 -22 -12 -21 -2 -88 -66 -88 -84 0 -8 85 -3
100 6 6 3 10 2 10 -3 0 -6 -8 -13 -17 -17 -17 -6 -17 -7 0 -16 9 -6 17 -17 17
-26 0 -15 -2 -15 -18 0 -10 9 -33 20 -50 23 -31 6 -32 5 -32 -25 0 -21 9 -41
25 -56 44 -45 85 -27 85 35 0 30 5 39 28 50 l27 14 -27 4 c-29 3 -35 19 -20
50 6 11 4 27 -4 42 -8 14 -14 20 -14 15z"/>
<path d="M845 3201 c-59 -19 -75 -46 -24 -38 42 6 85 23 93 35 11 18 -20 20
-69 3z"/>
<path d="M116 3154 c-20 -19 -20 -29 0 -48 19 -20 99 -21 133 -2 l23 13 -35
22 c-47 29 -101 36 -121 15z"/>
<path d="M555 3150 c-46 -18 -55 -62 -15 -73 32 -8 110 44 110 74 0 11 -68 11
-95 -1z"/>
<path d="M722 3138 c8 -25 89 -78 118 -78 31 0 54 27 41 48 -20 32 -169 60
-159 30z"/>
<path d="M660 3104 c-15 -39 -12 -61 12 -84 26 -24 29 -24 53 -7 16 12 17 18
6 47 -12 36 -38 70 -53 70 -5 0 -13 -12 -18 -26z"/>
<path d="M258 3068 c-41 -38 -55 -73 -38 -93 34 -41 95 1 95 66 0 58 -15 65
-57 27z"/>
<path d="M141 3040 c-44 -42 -48 -50 -28 -50 15 0 97 60 97 71 0 23 -34 12
-69 -21z"/>
<path d="M565 3046 c-43 -35 -21 -51 28 -20 20 13 37 29 37 34 0 18 -34 10
-65 -14z"/>
<path d="M777 3053 c-7 -11 28 -73 42 -73 23 0 20 21 -7 51 -16 18 -32 28 -35
22z"/>
<path d="M325 2990 c-10 -17 3 -76 20 -90 22 -18 30 11 15 54 -13 40 -25 52
-35 36z"/>
<path d="M505 2991 c-8 -13 31 -48 62 -56 52 -13 41 15 -17 45 -22 11 -41 16
-45 11z"/>
<path d="M642 2968 c-16 -16 -15 -60 2 -84 14 -19 15 -19 43 2 31 23 41 57 23
80 -15 17 -52 18 -68 2z"/>
<path d="M520 2922 c-49 -8 -47 -44 2 -61 35 -13 108 -15 108 -3 -2 30 -71 70
-110 64z"/>
<path d="M98 2884 c-9 -8 9 -64 27 -84 33 -37 65 -29 65 15 0 37 -72 90 -92
69z"/>
<path d="M712 2868 l-34 -9 29 -25 c33 -29 83 -40 111 -25 21 11 23 34 6 50
-14 14 -75 19 -112 9z"/>
<path d="M472 2842 c-28 -2 -42 -7 -39 -15 4 -14 117 -17 118 -2 1 14 -30 21
-79 17z"/>
<path d="M579 2807 c-44 -30 -48 -70 -7 -75 22 -3 32 3 48 30 39 65 20 86 -41
45z"/>
<path d="M660 2777 c0 -49 25 -82 54 -71 16 6 20 17 16 44 -2 17 -49 70 -62
70 -4 0 -8 -20 -8 -43z"/>
<path d="M415 2767 c-49 -32 -117 -39 -182 -19 -22 7 -35 7 -39 0 -10 -16 9
-28 69 -40 48 -10 64 -9 108 4 44 15 50 15 45 2 -3 -9 -6 -17 -6 -20 0 -2 -17
-12 -39 -23 -37 -20 -51 -37 -51 -67 0 -9 21 0 60 27 66 45 80 72 71 139 -1
14 -13 13 -36 -3z"/>
<path d="M762 2768 c6 -16 79 -58 90 -52 14 9 8 19 -25 42 -36 24 -71 29 -65
10z"/>
<path d="M611 2718 c-18 -50 -21 -67 -13 -72 14 -9 40 26 44 58 4 36 -18 47
-31 14z"/>
<path d="M667 2676 c-6 -15 38 -86 53 -86 21 0 17 20 -11 58 -34 47 -35 47
-42 28z"/>
<path d="M771 2644 c-11 -14 -19 -36 -17 -48 3 -11 5 -29 5 -38 1 -27 30 -22
55 9 30 38 35 55 23 81 -14 29 -41 28 -66 -4z"/>
<path d="M611 2586 c-15 -17 -5 -44 20 -51 30 -10 22 -20 -16 -22 -19 -1 -43
-7 -55 -13 -23 -13 -17 -33 8 -26 10 3 34 7 56 11 50 7 60 14 46 30 -9 11 -6
14 17 13 49 -1 63 2 63 12 0 6 -6 10 -13 10 -8 0 -27 11 -43 25 -32 28 -66 32
-83 11z"/>
<path d="M330 2575 c-17 -21 29 -59 84 -69 31 -6 56 2 56 16 0 14 -47 58 -63
59 -7 1 -24 2 -40 3 -15 2 -32 -3 -37 -9z"/>
<path d="M713 2495 c-29 -7 -59 -18 -68 -25 -37 -31 0 -79 47 -61 22 8 86 87
77 95 -2 2 -27 -2 -56 -9z"/>
<path d="M775 2470 c-10 -30 12 -85 40 -100 60 -32 75 28 20 84 -40 41 -51 44
-60 16z"/>
<path d="M711 2383 c-30 -32 -33 -41 -38 -111 l-4 -77 27 45 c15 25 33 52 40
61 15 17 25 91 15 107 -4 6 -20 -4 -40 -25z"/>
<path d="M580 2347 c0 -38 45 -174 53 -161 3 5 8 37 12 72 8 79 -6 122 -41
122 -20 0 -24 -5 -24 -33z"/>
<path d="M482 2308 c-28 -28 2 -71 87 -121 l30 -18 -21 48 c-40 92 -68 119
-96 91z"/>
<path d="M957 2304 c-12 -12 -8 -52 8 -90 20 -47 34 -36 28 23 -4 47 -22 80
-36 67z"/>
<path d="M754 2282 c-24 -15 -64 -122 -46 -122 13 0 74 63 82 85 13 36 -7 57
-36 37z"/>
<path d="M1010 2236 c0 -57 15 -67 30 -21 13 41 8 65 -15 65 -11 0 -15 -11
-15 -44z"/>
<path d="M900 2230 c0 -6 16 -27 35 -48 26 -28 35 -33 35 -19 0 31 -29 77 -50
77 -11 0 -20 -5 -20 -10z"/>
<path d="M454 2186 c-11 -28 18 -58 83 -88 36 -16 67 -27 70 -24 8 8 -36 73
-68 101 -33 27 -77 33 -85 11z"/>
<path d="M766 2178 c-42 -68 -23 -97 30 -44 30 30 34 39 24 51 -18 21 -37 19
-54 -7z"/>
<path d="M867 2166 c-8 -20 35 -46 75 -46 l33 1 -35 29 c-38 32 -65 38 -73 16z"/>
<path d="M1015 2135 c-4 -11 -10 -30 -15 -42 -9 -23 14 -53 41 -53 8 0 39 -9
68 -21 31 -11 79 -20 109 -20 53 0 53 -1 36 -20 -9 -10 -27 -19 -40 -19 -46 0
-70 -52 -38 -84 29 -30 56 -17 78 35 8 19 29 50 48 70 63 68 63 66 10 59 -42
-5 -74 -5 -165 -1 -10 1 -43 27 -72 58 -47 51 -54 56 -60 38z"/>
<path d="M656 2084 c-16 -15 -20 -37 -16 -84 4 -52 33 -74 67 -52 19 12 24 81
8 119 -15 36 -35 42 -59 17z"/>
<path d="M865 2090 c-10 -16 13 -39 33 -35 9 2 31 8 47 13 l30 9 -28 12 c-35
14 -74 14 -82 1z"/>
<path d="M759 2069 c-11 -7 -10 -12 6 -28 30 -30 69 -32 73 -3 2 12 2 22 0 22
-2 0 -17 4 -34 9 -18 5 -37 5 -45 0z"/>
<path d="M443 2064 c-7 -3 -13 -16 -13 -29 0 -34 44 -49 103 -34 52 13 52 22
-1 44 -45 20 -74 25 -89 19z"/>
<path d="M933 2042 c-32 -15 -52 -47 -38 -60 10 -10 38 12 58 47 11 17 17 30
15 30 -1 -1 -18 -9 -35 -17z"/>
<path d="M762 1963 c6 -15 17 -34 24 -42 18 -20 44 -7 37 18 -6 24 -20 36 -51
45 -21 7 -22 6 -10 -21z"/>
<path d="M985 1964 c-74 -22 -126 -46 -122 -57 6 -18 31 -15 116 17 119 44
124 74 6 40z"/>
<path d="M1090 1912 c-14 -37 -29 -61 -43 -67 -44 -20 -24 -85 25 -85 12 0 30
-8 40 -17 40 -36 57 29 26 96 -13 29 -21 62 -19 89 1 23 0 42 -3 42 -3 0 -14
-26 -26 -58z"/>
<path d="M433 1949 c-17 -17 -16 -24 2 -42 18 -19 101 -15 141 6 l28 14 -24
13 c-35 19 -132 24 -147 9z"/>
<path d="M571 1848 c-29 -28 -59 -64 -67 -79 -12 -24 -12 -30 2 -43 8 -9 19
-16 23 -16 12 0 37 24 56 54 17 28 48 127 41 133 -1 2 -26 -20 -55 -49z"/>
<path d="M740 1890 c0 -19 30 -84 43 -92 16 -10 37 10 30 30 -14 36 -73 86
-73 62z"/>
<path d="M490 1858 c-51 -27 -70 -52 -53 -69 19 -19 55 3 81 50 13 22 22 41
20 41 -2 0 -24 -10 -48 -22z"/>
<path d="M667 1863 c-27 -45 -10 -158 25 -169 49 -15 59 61 16 137 -21 38 -32
47 -41 32z"/>
<path d="M846 1824 c-11 -29 23 -54 102 -78 36 -12 27 17 -18 58 -43 39 -74
46 -84 20z"/>
<path d="M596 1746 c-20 -42 -20 -70 -2 -85 19 -16 32 8 35 65 3 54 -12 63
-33 20z"/>
<path d="M802 1733 c-23 -9 -33 -40 -17 -56 17 -18 70 -9 113 19 l27 18 -50
13 c-54 14 -54 14 -73 6z"/>
<path d="M955 1707 c-13 -20 -14 -30 -5 -46 12 -24 23 -26 52 -10 21 11 69 62
63 67 -1 1 -23 5 -48 8 -41 5 -47 3 -62 -19z"/>
<path d="M1064 1675 c-23 -36 -21 -75 6 -97 29 -24 36 -23 56 7 15 23 15 27
-6 70 -12 25 -26 45 -31 45 -5 0 -16 -11 -25 -25z"/>
<path d="M865 1641 c-48 -12 -75 -30 -75 -51 0 -30 32 -42 61 -22 31 21 58 54
59 70 0 13 -1 13 -45 3z"/>
<path d="M935 1578 c-39 -21 -75 -62 -75 -84 0 -55 50 -40 84 26 36 69 34 82
-9 58z"/>
<path d="M992 1526 c-19 -30 -35 -70 -35 -88 -2 -29 1 -33 23 -33 20 0 27 8
38 40 7 21 12 61 10 88 l-3 49 -33 -56z"/>
<path d="M1141 1513 c12 -26 32 -59 46 -73 23 -24 25 -24 37 -7 25 34 -1 68
-91 121 -7 4 -3 -14 8 -41z"/>
<path d="M1082 1524 c3 -3 2 -21 -3 -41 -5 -25 -3 -47 6 -69 17 -41 33 -50 52
-31 14 13 14 23 4 64 -12 48 -35 83 -54 83 -6 0 -8 -2 -5 -6z"/>
</g>
</svg>
